<svg width="1200" height="360" viewBox="0 0 1200 360" fill="none" xmlns="http://www.w3.org/2000/svg">
  <path d="M22 305L132 182L186 244L233 218L288 266L364 148L462 262L554 85L640 238L742 42L876 272L946 190L1026 276L1148 150L1180 305H22Z" fill="#0B1F2A" fill-opacity="0.9"/>
  <path d="M85 242L132 182L164 223L148 225L85 242Z" fill="white" fill-opacity="0.92"/>
  <path d="M334 196L364 148L392 194L374 199L334 196Z" fill="white" fill-opacity="0.92"/>
  <path d="M521 165L554 85L584 157L560 168L521 165Z" fill="white" fill-opacity="0.92"/>
  <path d="M701 131L742 42L778 136L748 152L701 131Z" fill="white" fill-opacity="0.92"/>
  <path d="M1097 219L1148 150L1172 216L1138 228L1097 219Z" fill="white" fill-opacity="0.9"/>
</svg>
